#!OML:ASF E:\Steps\Project 1\Capture day 1\Session 2\Subject.ASF
:FULLY-SPECIFIED
:DEGREES
331
root 8.8171 15.4354 6.24499 23.5331 2.61207 -357.346
lowerback -17.9853 -0.175528 -4.12447
upperback -4.14092 0.665065 -1.87211
thorax 5.59509 0.287268 0.495914
lowerneck 0.636507 0.165654 -3.4304
upperneck 8.55562 -0.17915 6.55187
head 2.65117 -0.0122044 2.7425
rclavicle -1.20265e-014 1.98785e-015
rhumerus -23.0262 -17.2194 -84.6028
rradius 13.8132
rwrist 25.7454
rhand -0.725241 -54.3616
rfingers 7.12502
rthumb 24.8955 -82.7603
lclavicle -1.20265e-014 1.98785e-015
lhumerus -20.0976 7.99223 83.7504
lradius 9.29174
lwrist -24.1429
lhand -29.6116 -19.2673
lfingers 7.12502
lthumb -2.94236 10.6921
rfemur -50.5694 11.5061 15.4137
rtibia 46.2214
rfoot -34.4204 -17.7369
rtoes -48.5751
lfemur -49.2825 -10.2242 -16.4166
ltibia 48.8897
lfoot -28.7241 2.08555
ltoes -32.0689
332
root 8.8377 15.496 6.25139 23.4963 2.15184 -357.367
lowerback -18.2829 -0.204373 -4.10742
upperback -4.33597 0.62989 -1.83427
thorax 5.54566 0.272605 0.519687
lowerneck 0.7941 0.185859 -3.35438
upperneck 8.54663 -0.154085 6.51384
head 2.61672 -0.00124425 2.71405
rclavicle 8.89561e-015 -3.57812e-014
rhumerus -23.2713 -15.2619 -85.2862
rradius 14.2316
rwrist 23.9632
rhand -0.906602 -54.3283
rfingers 7.12502
rthumb 24.7217 -82.7509
lclavicle 8.89561e-015 -3.57812e-014
lhumerus -20.2294 7.41151 83.7578
lradius 9.32126
lwrist -24.1248
lhand -29.1136 -19.3463
lfingers 7.12502
lthumb -2.4614 10.6192
rfemur -49.9824 11.7426 15.2389
rtibia 45.157
rfoot -34.0539 -17.7962
rtoes -49.3139
lfemur -48.4852 -10.2025 -16.556
ltibia 47.7141
lfoot -28.6942 2.68378
ltoes -32.394
333
root 8.85419 15.5564 6.25422 23.4573 1.76375 -357.306
lowerback -18.5642 -0.274648 -4.20126
upperback -4.48461 0.56173 -1.79096
thorax 5.5366 0.239427 0.604294
lowerneck 0.84368 0.176185 -3.34879
upperneck 8.55931 -0.168839 6.50463
head 2.61258 -0.00961609 2.70933
rclavicle 1.98785e-016 -3.97569e-015
rhumerus -23.4473 -13.6688 -85.8557
rradius 14.6581
rwrist 22.7975
rhand -0.626164 -54.5129
rfingers 7.12502
rthumb 24.9905 -82.8985
lclavicle 1.98785e-016 -3.97569e-015
lhumerus -20.3513 6.832 83.8151
lradius 9.50442
lwrist -23.8658
lhand -28.6526 -18.9078
lfingers 7.12502
lthumb -2.01622 11.0624
rfemur -49.376 11.9314 14.9962
rtibia 44.0816
rfoot -34.0419 -17.6744
rtoes -49.3434
lfemur -47.7226 -10.1869 -16.7496
ltibia 46.5894
lfoot -28.6182 2.96077
ltoes -32.4807
334
root 8.86964 15.6157 6.26073 23.4175 1.38522 -357.358
lowerback -18.8792 -0.270698 -4.20427
upperback -4.62567 0.573344 -1.69998
thorax 5.55054 0.245811 0.706662
lowerneck 0.93208 0.152559 -3.44426
upperneck 8.56342 -0.203995 6.54031
head 2.6009 -0.0307337 2.73791
rclavicle 1.56543e-015 4.77083e-015
rhumerus -23.5743 -12.3106 -86.2513
rradius 15.0203
rwrist 21.7175
rhand -0.271298 -54.5176
rfingers 7.12502
rthumb 25.3305 -82.8554
lclavicle 1.56543e-015 4.77083e-015
lhumerus -20.3838 6.15656 84.0512
lradius 9.57793
lwrist -23.5941
lhand -28.6469 -18.757
lfingers 7.12502
lthumb -2.01069 11.2132
rfemur -48.6942 12.2719 14.8389
rtibia 42.7965
rfoot -33.7395 -17.8187
rtoes -49.8652
lfemur -46.9199 -10.1981 -16.7701
ltibia 45.3322
lfoot -28.6049 3.4021
ltoes -33.3211
335
root 8.88634 15.6739 6.27043 23.427 0.953132 -357.446
lowerback -19.3841 -0.238717 -4.13233
upperback -4.69733 0.621768 -1.63005
thorax 5.73878 0.266993 0.753663
lowerneck 0.997271 0.158771 -3.49444
upperneck 8.54433 -0.19761 6.56464
head 2.58282 -0.0299363 2.75472
rclavicle 1.26725e-015 -7.55382e-015
rhumerus -23.6268 -10.7939 -86.7769
rradius 15.4262
rwrist 20.2329
rhand -0.360907 -54.4219
rfingers 7.12502
rthumb 25.2446 -82.7718
lclavicle 1.26725e-015 -7.55382e-015
lhumerus -20.1842 5.48834 84.2854
lradius 9.43137
lwrist -23.4167
lhand -28.7306 -19.2781
lfingers 7.12502
lthumb -2.09151 10.6914
rfemur -48.0819 12.6143 14.72
rtibia 41.4931
rfoot -35.151 -17.1364
rtoes -47.7478
lfemur -46.0772 -10.2767 -16.7145
ltibia 43.9105
lfoot -28.6844 3.96556
ltoes -33.8921
336
root 8.90127 15.7328 6.27606 23.5439 0.558742 -357.421
lowerback -19.9855 -0.267515 -4.16527
upperback -4.77339 0.621102 -1.63229
thorax 5.97366 0.26238 0.771871
lowerneck 0.976649 0.154484 -3.43199
upperneck 8.52767 -0.203751 6.56349
head 2.58084 -0.0311386 2.7425
rclavicle -1.26725e-015 -3.18055e-015
rhumerus -23.7354 -9.82017 -87.2883
rradius 15.9306
rwrist 19.3279
rhand -0.213376 -54.7405
rfingers 7.12502
rthumb 25.386 -83.0705
lclavicle -1.26725e-015 -3.18055e-015
lhumerus -20.0636 4.79442 84.362
lradius 9.49581
lwrist -23.0276
lhand -28.5932 -19.7802
lfingers 7.12502
lthumb -1.95881 10.1906
rfemur -47.7454 12.7545 14.5149
rtibia 40.5147
rfoot -35.5448 -16.4507
rtoes -46.381
lfemur -45.4567 -10.3546 -16.7608
ltibia 42.6233
lfoot -28.6531 4.44074
ltoes -34.6255
337
root 8.91926 15.7881 6.28308 23.6184 0.270196 -357.39
lowerback -20.486 -0.277584 -4.13545
upperback -4.89705 0.627299 -1.6669
thorax 6.10367 0.264457 0.720946
lowerneck 1.02 0.12376 -3.37351
upperneck 8.5269 -0.247215 6.56344
head 2.57467 -0.051803 2.73045
rclavicle 9.19379e-015 -7.15625e-015
rhumerus -24.0182 -8.80353 -87.7806
rradius 16.6063
rwrist 18.2222
rhand 0.158609 -55.1497
rfingers 7.12502
rthumb 25.7423 -83.4285
lclavicle 9.19379e-015 -7.15625e-015
lhumerus -20.1972 3.94809 84.38
lradius 9.8821
lwrist -22.4934
lhand -28.2445 -19.5285
lfingers 7.12502
lthumb -1.62201 10.4451
rfemur -47.2759 12.7797 14.362
rtibia 39.5317
rfoot -35.2268 -17.139
rtoes -48.2731
lfemur -44.8974 -10.4402 -16.8524
ltibia 41.4749
lfoot -28.4649 5.01477
ltoes -36.5992
338
root 8.93838 15.8383 6.29533 23.6036 -0.0242333 -357.381
lowerback -21.0403 -0.296135 -4.057
upperback -4.90773 0.615581 -1.65745
thorax 6.3843 0.254256 0.685191
lowerneck 1.04816 0.119509 -3.39807
upperneck 8.52141 -0.253593 6.5653
head 2.56826 -0.0564384 2.73519
rclavicle -1.56791e-014 3.69739e-014
rhumerus -24.0826 -7.10369 -88.4077
rradius 17.2824
rwrist 16.5251
rhand 0.29378 -55.4311
rfingers 7.12502
rthumb 25.8717 -83.6911
lclavicle -1.56791e-014 3.69739e-014
lhumerus -20.2094 3.19756 84.4047
lradius 10.2685
lwrist -21.9699
lhand -28.0662 -18.8157
lfingers 7.12502
lthumb -1.44983 11.1591
rfemur -46.5684 12.8496 14.2539
rtibia 38.3733
rfoot -32.5604 -18.1146
rtoes -51.8962
lfemur -44.1829 -10.4845 -16.973
ltibia 40.2542
lfoot -28.2983 5.06853
ltoes -36.2923
339
root 8.95308 15.8895 6.30492 23.5785 -0.269092 -357.385
lowerback -21.5283 -0.350325 -4.01053
upperback -4.89597 0.55593 -1.59112
thorax 6.65468 0.220244 0.715888
lowerneck 1.05428 0.103215 -3.40489
upperneck 8.50672 -0.277061 6.58709
head 2.56385 -0.0682641 2.74322
rclavicle -8.72168e-015 -5.56597e-015
rhumerus -24.07 -5.63043 -88.896
rradius 17.8799
rwrist 15.3103
rhand -0.050153 -55.4265
rfingers 7.12502
rthumb 25.5423 -83.7342
lclavicle -8.72168e-015 -5.56597e-015
lhumerus -20.099 1.09146 84.9123
lradius 10.5992
lwrist -19.9128
lhand -28.3455 -18.644
lfingers 7.12502
lthumb -1.71957 11.3288
rfemur -45.9086 12.9889 14.1393
rtibia 37.2776
rfoot -32.651 -17.9455
rtoes -51.8269
lfemur -43.4192 -10.5637 -17.0372
ltibia 38.9743
lfoot -28.1428 4.75253
ltoes -34.3413
340
root 8.96649 15.9408 6.30912 23.6014 -0.412201 -357.397
lowerback -21.904 -0.431901 -3.95752
upperback -4.99135 0.449315 -1.53667
thorax 6.75096 0.168006 0.716691
lowerneck 1.12208 0.0799424 -3.33117
upperneck 8.49484 -0.310957 6.58972
head 2.54882 -0.0842142 2.72903
rclavicle -1.04113e-014 4.77083e-015
rhumerus -24.3421 -4.72728 -89.2218
rradius 18.5737
rwrist 14.6336
rhand -0.34773 -55.0307
rfingers 7.12502
rthumb 25.2573 -83.3788
lclavicle -1.04113e-014 4.77083e-015
lhumerus -20.1424 -0.538611 85.1884
lradius 10.9771
lwrist -18.3004
lhand -28.5086 -18.9321
lfingers 7.12502
lthumb -1.87715 11.0394
rfemur -45.424 13.0656 14.0496
rtibia 36.3976
rfoot -35.9441 -16.0297
rtoes -46.5231
lfemur -42.7388 -10.8151 -17.0147
ltibia 37.7243
lfoot -28.1026 5.09022
ltoes -35.22
